<?xml version="1.0" encoding="UTF-8"?>
<svg id="color" xmlns="http://www.w3.org/2000/svg" viewBox="0 0 192 192">
  <defs>
    <style>
      .cls-1 {
        fill: none;
        stroke: #0140be;
        stroke-linecap: round;
        stroke-linejoin: round;
        stroke-width: 4px;
      }

      .cls-2 {
        fill: #fff;
      }

      .cls-2, .cls-3, .cls-4 {
        stroke-width: 0px;
      }

      .cls-3 {
        fill: #00de66;
      }

      .cls-4 {
        fill: #ffdd7f;
      }
    </style>
  </defs>
  <path class="cls-2" d="m143.51,78.28c-5.88.31-28.2,1.62-27.18,30.63,1.01,29.01,32.45,32.25,45.64,24.54,13.18-7.71,12.82-38.64-.41-47.87-8.72-6.09-14.2-7.51-18.05-7.3Z"/>
  <path class="cls-2" d="m60.07,32.33s-21.5-.2-30.77,19.13,4.54,43.19,28.6,47.53c24.06,4.34,42.01-10.85,37.08-35.3-4.93-24.46-21.69-31.56-34.91-31.36Z"/>
  <path class="cls-2" d="m139.19,57.01c-.1.83-4.93-3.35-7.49-1.58-2.56,1.78-4.14,5.13-.59,9.07,3.55,3.94,12.03,11.04,16.76,11.04s20.31-12.03,20.12-15.19-3.75-5.72-7.49-5.33-7.49,2.96-7.49,2.96c0,0,.2-11.83-4.14-17.55-4.34-5.72-12.23-13.81-18.34-15.98s-20.31-1.78-26.23,1.18c-5.92,2.96-17.66,5.39-15.19,11.04,4.8,11,15.98,1.38,23.47-.99,7.49-2.37,14.4,0,19.33,4.34,4.93,4.34,7.89,11.83,7.3,16.96Z"/>
  <path class="cls-2" d="m43.12,101.01s-7.48,6.15-10.31,14.47,3.33,14.13,5.99,17.62c2.66,3.49,22.61,21.95,26.27,24.28s12.14,0,17.79-6.32c5.65-6.32,32.92-42.9,32.92-42.9,0,0,10.14-14.58,8.7-16.57-1.44-2-14.96-13.97-18.29-12.97-3.33,1-33.81,37.8-36.25,36.91s-16.29-12.19-18.73-13.75c-2.44-1.55-6.43-2.88-8.09-.78Z"/>
  <path class="cls-3" d="m114.17,96.39c.66-1.63-6.3-11.38-10.73-6.74-4.92,5.15-27.62,37.15-31.96,41.28-.85.81-2.18.6-2.57.56-1.97-.24-14.55-19.29-19.45-19.86-4.9-.57-8.33,3.9-8.09,7.02.24,3.17,23.84,26.94,26.8,28.28,2.28,1.04,4.37.2,6.72-2.01,6.82-6.44,35.37-38.89,39.27-48.52Z"/>
  <path class="cls-4" d="m60.45,96.52s-17.09-4.86-20.01-16.55c-2.92-11.69,2.92-32.15,23.38-32.15s29.23,20.46,26.3,32.15c-2.92,11.69-15.06,16.55-29.67,16.55Z"/>
  <path class="cls-4" d="m143.71,90.2c-.48-.08-17.17-2.75-20.9,16.36s14.74,28.83,28.99,24.62c14.25-4.21,17.33-19.11,13.93-28.18-3.4-9.07-13.77-11.5-22.03-12.8Z"/>
  <g>
    <path class="cls-1" d="m58.77,40.49s-25.32,0-25.32,25.32,30.39,35.45,45.58,25.32c15.19-10.13,15.19-40.52-10.13-50.64"/>
    <path class="cls-1" d="m63.83,55.68s-15.19,0-10.13,10.13c5.06,10.13,10.13,0,15.19,5.06,5.06,5.06-5.06,10.13-10.13,5.06"/>
    <line class="cls-1" x1="65.38" y1="78.87" x2="67.69" y2="84.35"/>
    <line class="cls-1" x1="55.06" y1="47.93" x2="58.22" y2="56.35"/>
    <line class="cls-1" x1="95.27" y1="36.56" x2="102.64" y2="33.19"/>
    <line class="cls-1" x1="114.22" y1="29.19" x2="122.21" y2="29.4"/>
    <line class="cls-1" x1="132.74" y1="32.98" x2="140.32" y2="38.87"/>
    <line class="cls-1" x1="145.37" y1="47.51" x2="146.42" y2="55.93"/>
    <path class="cls-1" d="m134.85,61.4s8.63,7.58,13.47,9.05c0,0,7.58-5.05,13.26-8.84"/>
    <path class="cls-1" d="m136.95,84.98s-17.47,1.68-15.37,25.89c2.11,24.21,30.74,24.63,39.37,13.68,8.63-10.95,6.53-43.58-24-39.58Z"/>
    <path class="cls-1" d="m148.11,104.13s1.47-5.68-5.89-4.21c-7.37,1.47-5.68,14.1-1.05,15.79,4.63,1.68,8.21.21,9.47-4.42"/>
    <line class="cls-1" x1="142.85" y1="105.61" x2="133.27" y2="108.24"/>
    <path class="cls-1" d="m144.21,110.87c-.32.11-10,3.37-10,3.37"/>
    <path class="cls-1" d="m74.5,121.67c2.94-3.38,29.2-37.21,31.43-36.96,2.24.25,8.42,4.95,11.01,9.47,2.59,4.51-35.11,47.3-38.07,50.08"/>
    <path class="cls-1" d="m70.28,125.27s-1.48,1.35-4.98-2.53c0,0-10.19-10.74-14.99-14.61-4.85-3.91-9.63,4.7-9.63,4.7"/>
    <path class="cls-1" d="m74.49,148.12s-3.92,5.47-9.66.36c-5.19-4.62-23.18-21.83-26.68-28.12-.37-.66-.51-1.75.02-2.8"/>
  </g>
</svg>