<?xml version="1.0" encoding="UTF-8"?>
<svg id="color" xmlns="http://www.w3.org/2000/svg" viewBox="0 0 192 192">
  <defs>
    <style>
      .cls-1 {
        fill: none;
        stroke: #0140be;
        stroke-linecap: round;
        stroke-linejoin: round;
        stroke-width: 4px;
      }

      .cls-2 {
        fill: #fff;
      }

      .cls-2, .cls-3 {
        stroke-width: 0px;
      }

      .cls-3 {
        fill: #00de66;
      }
    </style>
  </defs>
  <path class="cls-2" d="m128.78,79.51c-.58.22-10.46,4.37-15.99,13.72-5.54,9.35-8,21.2-4.92,40.54,3.08,19.33,9.84,30.56,20.3,33.05s32.6,2.49,40.59-11.23c8-13.72,10.46-31.18,3.08-51.76-7.38-20.58-11.69-26.19-23.37-26.82-11.69-.62-14.76.62-19.68,2.49Z"/>
  <path class="cls-2" d="m128.42,25.81s-9.29.1-11.14,1.94c-1.85,1.84-17.31,30.11-17.93,31.33-.62,1.23-33.39,61.44-33.39,61.44,0,0-22.88,36.25-23.5,40.55-.62,4.3,7.19,3.09,12.76,4.32,5.56,1.23,17.31-.06,21.02-3.13,0,0,3.6-3.3,10.66-17.02,7.54-14.63,28.29-53.02,28.29-53.64s32.15-53.45,34.01-58.98c1.85-5.53-2.45-5.87-5.54-6.48-3.09-.61-13.39-.33-15.24-.33Z"/>
  <path class="cls-2" d="m31.08,28.98s-7.87,3.16-12.47,15.82c-4.59,12.66-7.22,37.98.66,53.17,7.87,15.19,20.34,18.36,34.12,17.09,13.78-1.27,27.56-6.96,32.15-22.79,4.59-15.82,2.62-47.47-4.59-56.34-7.22-8.86-20.34-13.93-32.81-13.29,0,0-9.19,1.27-17.06,6.33Z"/>
  <path class="cls-3" d="m160.24,94.35c-3.72-4.84-16.22-6.93-23.92-5.44-7.69,1.49-18.67,8.28-20.38,25.41-1.21,12.1-.56,13.8-.19,19.67.37,5.86,1.99,12.66,8.56,19.98,8.8,9.79,19.17,9.31,25.13,7.82,5.96-1.49,16.13-6.45,19.85-24.07,3.72-17.62-5.34-38.51-9.06-43.35Zm-6.82,42.97c-.93,9.06-9.99,10.44-15.14,6.84-5.15-3.6-4.28-14.15-4.28-19.42,0,0,.06.93-.06-7.82-.12-8.75,1.95-16.91,5.52-17.18,6.65-.5,10.57,4.8,12.8,8.65,2.23,3.85,2.09,19.87,1.16,28.93Z"/>
  <path class="cls-3" d="m78.83,50.66c-4.23-9.97-8.91-11.23-14.8-13.95-3.52-1.62-11.92-2.07-15-1.68-4.64.59-8.07,1.68-12.56,4.66-4.49,2.98-6.89,3.92-9.71,18.03-2.9,14.52-.9,30.56,2.95,37.03,3.85,6.47,7.59,17.03,20.54,16.25,12.95-.78,21.66-2.98,26.66-15.67,5-12.69,6.15-34.7,1.92-44.67Zm-18.84,41.18c-1.79,2.2-8.72,3.76-13.33-1.68-4.61-5.44-3.85-21.11-1.67-30.82,2.18-9.71,4.83-9.84,6.92-9.84,1.92,0,6.06.39,8.2,5.05,1.43,3.1,2.69,6.47,2.95,17.35.26,10.88-1.28,17.74-3.08,19.94Z"/>
  <path class="cls-3" d="m57.58,155.8s-1.75,1.25-1.38,2.76,11.05.28,13.18.28,4.76-1.38,7.64-6.76c2.88-5.39,11.77-19.91,15.15-26.8,3.38-6.89,16.41-26.05,19.16-33.82s16.41-31.06,20.04-37.32c3.63-6.26,6.89-13.18,6.51-14.56s-.38-1.88-2.38-1.88-11.43.72-12.81,1.22-.25-.59-1.25,1.16c-1,1.75-25.17,46.84-28.56,53.73-3.38,6.89-17.28,30.94-21.54,38.58-4.26,7.64-11.65,20.92-13.78,23.42Z"/>
  <g>
    <path class="cls-1" d="m76.2,44.91c-4.26-9.21-7.84-10.41-13.61-13.05-3.61-1.65-12.23-2.1-15.38-1.71-4.76.6-8.28,1.71-12.88,4.73-4.6,3.02-9.47,8.02-12.36,22.35-2.98,14.75-.92,31.03,3.02,37.6,3.94,6.57,11.18,16.96,24.45,16.17,13.28-.79,22.22-3.02,27.35-15.91,2.4-6.04,3.94-14.16,4.45-22.12"/>
    <path class="cls-1" d="m51.16,48.56c-2.14,0-4.86.13-7.1,9.99-2.24,9.86-3.02,25.77,1.71,31.29,4.73,5.52,8.81,1.71,10.65-.53,1.84-2.24,3.42-9.2,3.16-20.25-.26-11.04-1.31-14.59-3.02-17.62-1.71-3.02-3.42-2.89-5.39-2.89Z"/>
    <path class="cls-1" d="m123.8,64.26c3.58-6.33,6.53-10.65,8.09-13.33,3.81-6.57,9.86-15.51,9.47-16.96-.39-1.45-.39-1.97-2.5-1.97s-14.33-.26-15.78.26c-1.45.53-2.89,1.05-3.94,2.89-.43.76-2.95,6.27-8.41,16.49"/>
    <path class="cls-1" d="m91.05,87.83c-.86,1.65-1.51,2.93-1.9,3.72-3.55,7.23-18.14,32.47-22.61,40.49-4.47,8.02-12.23,21.96-14.46,24.59,0,0-1.84,1.31-1.45,2.89.39,1.58,13.94,1.31,16.17,1.31s5-1.45,8.02-7.1c3.02-5.65,12.36-20.9,15.91-28.14,1.98-4.02,7.09-12.04,11.73-19.76"/>
    <path class="cls-1" d="m132.54,84.18c-.59.1-1.74.53-2.56,1.25"/>
    <path class="cls-1" d="m170.41,135.12c1.9-8.98.15-19.23-1.58-27.74"/>
    <path class="cls-1" d="m150.76,160.97c.69-.21,1.41-.47,2.16-.78"/>
    <path class="cls-1" d="m111.14,116c-.52,8.61.36,11.7.69,16.96.39,6.21,2.1,13.41,9.07,21.17,6.97,7.75,15.9,8.84,22.6,8.23"/>
    <path class="cls-1" d="m149.04,109.35c-.26-1.38-.07-2.37-.79-4.21-.59-1.49-2.17-5-5.85-5.26"/>
    <line class="cls-1" x1="119.79" y1="71.25" x2="119.2" y2="72.24"/>
    <path class="cls-1" d="m149.4,115.42s2.37,21.35-4.15,25.5"/>
    <path class="cls-1" d="m169.56,139.14s-2.37,10.08-11.86,17.79"/>
    <path class="cls-1" d="m166.59,102.96s-2.97-14.23-10.08-17.2c-7.12-2.97-18.38-2.37-18.38-2.37"/>
    <path class="cls-1" d="m123.3,88.13s-10.67,8.9-11.86,23.13"/>
    <path class="cls-1" d="m104.32,101.18s9.49-16.01,11.86-23.13"/>
    <path class="cls-1" d="m93.06,82.8s14.23-26.09,14.83-27.28"/>
    <path class="cls-1" d="m78.77,49.74s3.02,10.52,2.43,17.64"/>
    <path class="cls-1" d="m136.48,101.8s-3.26,1.09-3.67,17.39,2.58,22.41,5.7,23.36"/>
  </g>
</svg>