<?xml version="1.0" encoding="UTF-8"?>
<svg id="color" xmlns="http://www.w3.org/2000/svg" viewBox="0 0 192 192">
  <defs>
    <style>
      .cls-1 {
        fill: #e5ebf9;
      }

      .cls-1, .cls-2, .cls-3, .cls-4 {
        stroke-width: 0px;
      }

      .cls-5 {
        fill: none;
        stroke: #0140be;
        stroke-linecap: round;
        stroke-linejoin: round;
        stroke-width: 4px;
      }

      .cls-2 {
        fill: #f74902;
      }

      .cls-3 {
        fill: #fff;
      }

      .cls-4 {
        fill: #ffdd7f;
      }
    </style>
  </defs>
  <g>
    <path class="cls-3" d="m54.45,38.75s-23.36,7.74-35.12,28.91c-11.76,21.17-4.87,78.57,42.16,87.97,47.03,9.41,74.99-21.53,74.99-52.1,0-24.21-21.75-32.02-8.97-31.17l11.67-4.99s6.52,9.59,12.67,7.15c6.15-2.45,29.67-9.5,24.96-14.2s-11.76-7.06-11.76-9.41,7.06-11.76,2.35-16.46c-4.7-4.7-23.52,2.35-23.52,2.35,0,0-11.76,9.41-11.76,21.17s-4.8,5.43-4.8,5.43c0,0-16.28-19.26-28.03-21.61-11.76-2.35-23.36-8.67-44.84-3.04Z"/>
    <path class="cls-1" d="m67.97,51.8c-1.45.32-22.2,3.97-32.07,19.87-9.87,15.89-4.93,46.69,6.41,60.59,11.35,13.91,59.21,27.32,77.47-11.92,18.26-39.24-9.87-60.59-14.8-64.07-4.93-3.48-21.22-7.95-37.01-4.47Z"/>
    <path class="cls-4" d="m136.72,67.48c.26-.78,3.91-11.47,9.12-14.6,5.21-3.13,15.38-6.26,15.38-6.26,0,0-3.13,7.82-.52,8.6,2.61.78,13.03,6.52,13.29,7.82s-19.55,13.03-22.16,11.47c-2.61-1.56-15.12-7.04-15.12-7.04Z"/>
    <path class="cls-2" d="m73.74,89.66c-1.04.26-5.74,7.82-4.17,11.21,1.56,3.39,6,7.3,10.95,5.47,4.95-1.82,7.82-3.13,7.3-7.56-.52-4.43-8.08-10.95-10.95-10.17-2.87.78-5.74,1.3-5.74,1.3l2.61-.26Z"/>
  </g>
  <g>
    <path class="cls-5" d="m77.09,88.81c-3.87-.08-8.17,3.82-7.75,10.29.34,5.24,7.28,9.16,14.12,6.63,4.35-1.61,5.38-7.37,4.46-9.93"/>
    <path class="cls-5" d="m88.39,80.64c-1.82-3.42-10.03-7.98-19.38-5.47-14.36,3.85-15.5,17.1-13,23.94"/>
    <path class="cls-5" d="m62.63,111.01c1.82,2.92,11.3,11.63,22.34,7.71,11.03-3.92,14.81-13.42,13.22-19.48"/>
    <path class="cls-5" d="m82.49,133.69c-5.27,1.9-21.01,1.9-34.68-13.15-9.99-10.98-12.77-33.97-3.19-47.42,7.62-10.7,24.22-15.35,28.07-15.2"/>
    <path class="cls-5" d="m83.23,57.92s14.96,1.47,23.79,15.2"/>
    <path class="cls-5" d="m118.71,65.14s-11.21-17.52-33.64-20.46c-19.71-2.58-36.41,2.57-48.67,14.47-18.31,17.76-13.66,38.37-13.66,38.37"/>
    <path class="cls-5" d="m25.92,112.56c.25.98,8.38,22.84,24.94,31.18,17.29,8.71,40.68,10.59,57.87-1.23,17.05-11.72,26.53-36.24,19.78-58"/>
    <path class="cls-5" d="m87.7,95s26.78-19.08,62.58-33.3"/>
    <path class="cls-5" d="m138.08,58.32s.45-4.03,1.6-8.44c1.19-4.56,20.61-13.55,22.57-12.08,1.96,1.47.14,8.18-.68,13"/>
    <path class="cls-5" d="m174.1,63.33s-11.94,8.1-20.52,9.58c-8.58,1.47-9.35-2.96-15.05-5.24"/>
    <path class="cls-5" d="m114.38,90.45c1.6,5.02,2.12,13.46.23,19.15-3.42,10.26-8.44,15.5-17.77,19.68"/>
  </g>
</svg>